<?xml version="1.0" encoding="UTF-8" standalone="no"?>
<!DOCTYPE svg PUBLIC "-//W3C//DTD SVG 1.1//EN"
 "http://www.w3.org/Graphics/SVG/1.1/DTD/svg11.dtd">
<!-- Generated by graphviz version 5.0.0 (20220707.1540)
 -->
<!-- Title: dependencies Pages: 1 -->
<svg width="266pt" height="174pt"
 viewBox="0.00 0.00 266.00 173.80" xmlns="http://www.w3.org/2000/svg" xmlns:xlink="http://www.w3.org/1999/xlink">
<g id="graph0" class="graph" transform="scale(1 1) rotate(0) translate(4 169.8)">
<title>dependencies</title>
<polygon fill="white" stroke="transparent" points="-4,4 -4,-169.8 262,-169.8 262,4 -4,4"/>
<text text-anchor="middle" x="129" y="-8.2" font-family="sans-serif" font-size="14.00">dependencies</text>
<g id="clust1" class="cluster">
<title>cluster_MkgtOfficialBotModule</title>
<polygon fill="none" stroke="black" stroke-dasharray="1,5" points="8,-32.8 8,-157.8 250,-157.8 250,-32.8 8,-32.8"/>
</g>
<g id="clust6" class="cluster">
<title>cluster_MkgtOfficialBotModule_providers</title>
<polygon fill="none" stroke="black" points="16,-40.8 16,-92.8 242,-92.8 242,-40.8 16,-40.8"/>
</g>
<!-- MkgtOfficialBotService -->
<g id="node1" class="node">
<title>MkgtOfficialBotService</title>
<ellipse fill="#fdb462" stroke="black" cx="129" cy="-66.8" rx="104.8" ry="18"/>
<text text-anchor="middle" x="129" y="-62.6" font-family="Times,serif" font-size="14.00">MkgtOfficialBotService</text>
</g>
<!-- MkgtOfficialBotModule -->
<g id="node2" class="node">
<title>MkgtOfficialBotModule</title>
<polygon fill="#8dd3c7" stroke="black" points="205.65,-149.8 202.65,-153.8 181.65,-153.8 178.65,-149.8 52.35,-149.8 52.35,-113.8 205.65,-113.8 205.65,-149.8"/>
<text text-anchor="middle" x="129" y="-127.6" font-family="Times,serif" font-size="14.00">MkgtOfficialBotModule</text>
</g>
<!-- MkgtOfficialBotService&#45;&gt;MkgtOfficialBotModule -->
<g id="edge1" class="edge">
<title>MkgtOfficialBotService&#45;&gt;MkgtOfficialBotModule</title>
<path fill="none" stroke="black" d="M129,-84.91C129,-84.91 129,-103.79 129,-103.79"/>
<polygon fill="black" stroke="black" points="125.5,-103.79 129,-113.79 132.5,-103.79 125.5,-103.79"/>
</g>
</g>
</svg>
