<svg xmlns="http://www.w3.org/2000/svg" viewBox="0 0 511.93084 248.51064"><defs><style>.fed9eaa6-2610-4d76-9bef-8e4bdba2e6fb{fill:#b2b2b2;fill-opacity:0.2;}.feb10245-6b5e-482e-b7f7-69f4d909c535{fill:#fff;}</style></defs><g id="a9153f8e-47cd-4a4d-a507-7b4d02e656b9" data-name="Слой 2"><g id="a88b84fe-f065-42e2-87a1-67fe988f4a91" data-name="Слой 1"><rect class="fed9eaa6-2610-4d76-9bef-8e4bdba2e6fb" x="4.45877" y="50.55319" width="166.46809" height="46.29787" rx="6.38834"/><path class="feb10245-6b5e-482e-b7f7-69f4d909c535" d="M49.59431,75.3312l-1.40088,4.24121H46.39314L50.97419,66.09h2.10059l4.60058,13.48242H55.815L54.37458,75.3312Zm4.4209-1.36035L52.69489,70.09c-.30078-.87988-.5-1.67969-.70019-2.46h-.04c-.20019.7998-.41992,1.62012-.68066,2.44043l-1.32032,3.90039Z"/><path class="feb10245-6b5e-482e-b7f7-69f4d909c535" d="M59.69392,69.89077l2.12012,5.7207c.2207.64063.46,1.40039.62011,1.98047h.04c.18067-.58008.37988-1.32031.62012-2.02051l1.9209-5.68066h1.86035l-2.64063,6.90137c-1.26074,3.32031-2.12109,5.02051-3.32129,6.06054a4.76027,4.76027,0,0,1-2.16015,1.14063l-.44043-1.48047a4.6471,4.6471,0,0,0,1.541-.86035,5.34169,5.34169,0,0,0,1.48047-1.96,1.25928,1.25928,0,0,0,.13965-.41992,1.527,1.527,0,0,0-.12012-.46l-3.581-8.92188Z"/><path class="feb10245-6b5e-482e-b7f7-69f4d909c535" d="M75.57575,69.89077V78.2521l1,.02051-.09961,4.38086H75.09529l-.08008-3.08106H68.314L68.234,82.65347H66.85407L66.774,78.27261l.82031-.02051a7.54735,7.54735,0,0,0,.96-1.98047,12.78357,12.78357,0,0,0,.56055-3.86035V69.89077ZM70.67439,72.8312a12.82661,12.82661,0,0,1-.5,3.60059,9.21315,9.21315,0,0,1-.78028,1.80078h4.46094v-7.002H70.67439Z"/><path class="feb10245-6b5e-482e-b7f7-69f4d909c535" d="M80.2945,69.89077v4.08008c0,1.541-.0205,2.501-.10058,3.88086l.06055.02051c.58007-1.18067.91992-1.86036,1.55957-2.98047l3.02148-5.001h2.05957v9.68164H85.2154V75.47183c0-1.58106.04-2.4004.12012-3.96094H85.275c-.62011,1.24023-1.04,2.02051-1.60058,3-.91992,1.501-1.98047,3.36133-3.02051,5.06152H78.63337V69.89077Z"/><path class="feb10245-6b5e-482e-b7f7-69f4d909c535" d="M96.23493,69.89077v1.39941h-3.0205v8.28223H91.47322V71.29018H88.45271V69.89077Z"/><path class="feb10245-6b5e-482e-b7f7-69f4d909c535" d="M106.276,74.65151c0,3.58106-2.48145,5.14063-4.82129,5.14063-2.62109,0-4.6416-1.91992-4.6416-4.98047,0-3.24121,2.12109-5.1416,4.80176-5.1416C104.39509,69.67007,106.276,71.69058,106.276,74.65151Zm-7.68164.09961c0,2.1211,1.21973,3.72071,2.94043,3.72071,1.67969,0,2.94043-1.58008,2.94043-3.76075,0-1.63965-.82031-3.7207-2.90039-3.7207C99.49372,70.99038,98.59431,72.91128,98.59431,74.75112Z"/><path class="feb10245-6b5e-482e-b7f7-69f4d909c535" d="M108.49372,73.05093c0-1.24024-.04-2.24024-.08008-3.16016h1.58106l.08008,1.66016h.04a3.80522,3.80522,0,0,1,3.44043-1.88086c2.34082,0,4.10058,1.98047,4.10058,4.9209,0,3.48144-2.12011,5.20117-4.40039,5.20117a3.39774,3.39774,0,0,1-2.98144-1.51953h-.03907v5.26074h-1.74121Zm1.74121,2.58105a3.959,3.959,0,0,0,.07911.71973,2.71658,2.71658,0,0,0,2.64062,2.06054c1.86035,0,2.94141-1.5205,2.94141-3.74121,0-1.94043-1.02051-3.60058-2.88086-3.60058a2.8105,2.8105,0,0,0-2.66114,2.18066,2.87452,2.87452,0,0,0-.11914.71973Z"/><path class="feb10245-6b5e-482e-b7f7-69f4d909c535" d="M121.49372,69.89077v4.08008c0,1.541-.0205,2.501-.10058,3.88086l.06054.02051c.58008-1.18067.91993-1.86036,1.55957-2.98047l3.02149-5.001h2.05957v9.68164h-1.67969V75.47183c0-1.58106.04-2.4004.12012-3.96094h-.06055c-.62012,1.24023-1.04,2.02051-1.60058,3-.91993,1.501-1.98047,3.36133-3.02051,5.06152h-2.02051V69.89077Z"/><rect class="fed9eaa6-2610-4d76-9bef-8e4bdba2e6fb" x="173.58244" y="50.55319" width="166.46809" height="46.29787" rx="6.38834"/><path class="feb10245-6b5e-482e-b7f7-69f4d909c535" d="M207.69782,66.24917a20.21328,20.21328,0,0,1,3.34034-.25977,5.542,5.542,0,0,1,3.78125,1.12012,3.627,3.627,0,0,1,1.18017,2.82129,3.96809,3.96809,0,0,1-1.04052,2.87988,5.5846,5.5846,0,0,1-4.12061,1.48047,5.95992,5.95992,0,0,1-1.40039-.12012v5.40137h-1.74024Zm1.74024,6.50195a5.85876,5.85876,0,0,0,1.44043.13965c2.1001,0,3.38037-1.01953,3.38037-2.88086,0-1.78027-1.26025-2.63965-3.18066-2.63965a7.30419,7.30419,0,0,0-1.64014.13965Z"/><path class="feb10245-6b5e-482e-b7f7-69f4d909c535" d="M223.11921,79.57241l-.14062-1.2207H222.919a3.60444,3.60444,0,0,1-2.96094,1.44043,2.75826,2.75826,0,0,1-2.96045-2.78028c0-2.34082,2.08057-3.62109,5.8208-3.60058v-.2002a1.99565,1.99565,0,0,0-2.2002-2.24023,4.82134,4.82134,0,0,0-2.5205.71973l-.40039-1.16016a6.00826,6.00826,0,0,1,3.18066-.86035c2.96094,0,3.68164,2.02051,3.68164,3.96093v3.6211a13.73009,13.73009,0,0,0,.15918,2.32031Zm-.26074-4.94141c-1.91992-.04-4.10059.30079-4.10059,2.18067a1.55761,1.55761,0,0,0,1.66016,1.68066,2.41,2.41,0,0,0,2.34082-1.62011,1.85814,1.85814,0,0,0,.09961-.56055Z"/><path class="feb10245-6b5e-482e-b7f7-69f4d909c535" d="M234.2989,79.21206a6.47577,6.47577,0,0,1-2.78027.56055,4.60006,4.60006,0,0,1-4.82129-4.94141,4.9195,4.9195,0,0,1,5.20117-5.14062,5.8758,5.8758,0,0,1,2.44043.5l-.39942,1.36035a4.08027,4.08027,0,0,0-2.041-.46,3.65,3.65,0,0,0-.05957,7.28125,4.98962,4.98962,0,0,0,2.16015-.48047Z"/><path class="feb10245-6b5e-482e-b7f7-69f4d909c535" d="M244.31989,69.89077v9.68164h-1.75976V71.29018h-4.501v8.28223h-1.7417V69.89077Z"/><path class="feb10245-6b5e-482e-b7f7-69f4d909c535" d="M248.79841,69.89077v4.08008c0,1.541-.02051,2.501-.10059,3.88086l.06055.02051c.58008-1.18067.91992-1.86036,1.55957-2.98047l3.02149-5.001H255.399v9.68164h-1.67969V75.47183c0-1.58106.04-2.4004.12012-3.96094h-.06055c-.62012,1.24023-1.04,2.02051-1.60059,3-.91992,1.501-1.97949,3.36133-3.0205,5.06152h-2.02051V69.89077Z"/><path class="feb10245-6b5e-482e-b7f7-69f4d909c535" d="M265.15876,79.21206a6.47577,6.47577,0,0,1-2.78027.56055,4.60006,4.60006,0,0,1-4.82129-4.94141,4.91951,4.91951,0,0,1,5.20117-5.14062,5.87576,5.87576,0,0,1,2.44043.5l-.39941,1.36035a4.08032,4.08032,0,0,0-2.041-.46,3.65,3.65,0,0,0-.05957,7.28125,4.98967,4.98967,0,0,0,2.16016-.48047Z"/><path class="feb10245-6b5e-482e-b7f7-69f4d909c535" d="M272.63825,79.57241l-.13964-1.2207h-.06055a3.60388,3.60388,0,0,1-2.96,1.44043,2.75813,2.75813,0,0,1-2.96094-2.78028c0-2.34082,2.08008-3.62109,5.82129-3.60058v-.2002a1.99565,1.99565,0,0,0-2.2002-2.24023,4.81869,4.81869,0,0,0-2.5205.71973l-.40039-1.16016a6.00316,6.00316,0,0,1,3.18066-.86035c2.96094,0,3.68066,2.02051,3.68066,3.96093v3.6211a13.62233,13.62233,0,0,0,.16016,2.32031Zm-.25976-4.94141c-1.9209-.04-4.10059.30079-4.10059,2.18067a1.55761,1.55761,0,0,0,1.66016,1.68066,2.40864,2.40864,0,0,0,2.33984-1.62011,1.83,1.83,0,0,0,.10059-.56055Z"/><path class="feb10245-6b5e-482e-b7f7-69f4d909c535" d="M278.61775,69.89077v3.90039h4.60058V69.89077h1.74024v9.68164h-1.74024V75.19155h-4.60058v4.38086h-1.74121V69.89077Z"/><path class="feb10245-6b5e-482e-b7f7-69f4d909c535" d="M289.45759,69.89077v4.08008c0,1.541-.02051,2.501-.10059,3.88086l.06055.02051c.58008-1.18067.91992-1.86036,1.55957-2.98047l3.02149-5.001h2.05957v9.68164h-1.67969V75.47183c0-1.58106.04-2.4004.12012-3.96094h-.06055c-.62012,1.24023-1.04,2.02051-1.60059,3-.91992,1.501-1.98047,3.36133-3.0205,5.06152h-2.02051V69.89077Z"/><path class="feb10245-6b5e-482e-b7f7-69f4d909c535" d="M306.05818,79.57241h-1.74024V75.51186h-1.2998a2.29206,2.29206,0,0,0-1.6211.54c-.71972.58008-.97949,1.78028-1.35937,2.72071a6.0425,6.0425,0,0,1-.40039.7998h-1.88086a6.22948,6.22948,0,0,0,.60058-1.10058c.41993-.93946.66016-2.2002,1.52051-2.91993a2.30366,2.30366,0,0,1,1.09961-.56054v-.05957a2.57827,2.57827,0,0,1-2.56055-2.40039,2.33171,2.33171,0,0,1,1.28028-2.10059,6.78121,6.78121,0,0,1,3.24121-.66016,26.82343,26.82343,0,0,1,3.12012.2002Zm-1.74024-8.52148a9.73651,9.73651,0,0,0-1.46-.10059c-1.20019,0-2.62109.33984-2.62109,1.68066,0,1.24024,1.541,1.68067,2.58105,1.68067h1.5Z"/><rect class="fed9eaa6-2610-4d76-9bef-8e4bdba2e6fb" x="345.46276" y="50.55319" width="166.46809" height="46.29787" rx="6.38834"/><path class="feb10245-6b5e-482e-b7f7-69f4d909c535" d="M398.49763,66.88979a6.40544,6.40544,0,0,1,3.56055-1.0205c2.34082,0,3.96093,1.2207,3.96093,3.30078a3.39728,3.39728,0,0,1-2.78027,3.28125v.04a3.35292,3.35292,0,0,1,3.28027,3.37988c0,2.80078-2.41992,3.9209-4.88086,3.9209a6.87506,6.87506,0,0,1-3.5205-.87989l.46-1.36035a6.543,6.543,0,0,0,3.02051.82032c2.001,0,3.10058-1.08008,3.10058-2.56055,0-2.02051-1.94043-2.60059-3.66016-2.60059h-.80078V71.89077h.80078c1.78028,0,3.16016-1.10059,3.16016-2.48047,0-1.36035-.96-2.12012-2.41992-2.12012a5.52266,5.52266,0,0,0-2.80078.87989Z"/><path class="feb10245-6b5e-482e-b7f7-69f4d909c535" d="M408.75739,70.00991a20.763,20.763,0,0,1,3.08106-.21973c1.62012,0,4.30078.25977,4.30078,2.4209a2.29161,2.29161,0,0,1-2.02051,2.18067v.04c1.4209.19921,2.46094,1,2.46094,2.40039,0,2.54-3.20117,2.86035-5.10156,2.86035-1.08008,0-2.2002-.08008-2.72071-.12012Zm1.66114,8.40234a10.72148,10.72148,0,0,0,1.41992.08008c1.18066,0,2.94043-.28027,2.94043-1.68066s-1.40039-1.7002-3.08008-1.7002h-1.28027Zm.01953-4.46093h1.32031c1.30078,0,2.64063-.37989,2.64063-1.52051,0-.96-.83985-1.41992-2.60059-1.41992a12.4497,12.4497,0,0,0-1.36035.08008Z"/><path class="feb10245-6b5e-482e-b7f7-69f4d909c535" d="M427.56013,74.65151c0,3.58106-2.48145,5.14063-4.82129,5.14063-2.62109,0-4.6416-1.91992-4.6416-4.98047,0-3.24121,2.12109-5.1416,4.80176-5.1416C425.67927,69.67007,427.56013,71.69058,427.56013,74.65151Zm-7.68164.09961c0,2.1211,1.21973,3.72071,2.94043,3.72071,1.67969,0,2.94043-1.58008,2.94043-3.76075,0-1.63965-.82031-3.7207-2.90039-3.7207C420.7779,70.99038,419.87849,72.91128,419.87849,74.75112Z"/><path class="feb10245-6b5e-482e-b7f7-69f4d909c535" d="M431.4781,69.89077v3.90039h4.60058V69.89077h1.74024v9.68164h-1.74024V75.19155H431.4781v4.38086h-1.74121V69.89077Z"/><path class="feb10245-6b5e-482e-b7f7-69f4d909c535" d="M442.43806,69.89077V74.091h.41992l3.64063-4.2002h2.14062l-4.22168,4.38086c1.56055.16016,2.501,1.2002,3.26074,2.94043a20.55576,20.55576,0,0,0,1.041,2.36035h-1.84082a12.88124,12.88124,0,0,1-.90039-1.98047,3.14227,3.14227,0,0,0-3.2002-2.28027h-.33984v4.26074h-1.74121V69.89077Z"/><path class="feb10245-6b5e-482e-b7f7-69f4d909c535" d="M451.898,69.89077v4.08008c0,1.541-.02051,2.501-.10059,3.88086l.06055.02051c.58008-1.18067.91992-1.86036,1.55957-2.98047l3.02149-5.001h2.05957v9.68164h-1.67969V75.47183c0-1.58106.04-2.4004.12012-3.96094h-.06055c-.62012,1.24023-1.04,2.02051-1.60059,3-.91992,1.501-1.98047,3.36133-3.02051,5.06152h-2.0205V69.89077Z"/><rect class="fed9eaa6-2610-4d76-9bef-8e4bdba2e6fb" x="4.45877" width="249.73671" height="46.29787" rx="7.82463"/><path class="feb10245-6b5e-482e-b7f7-69f4d909c535" d="M67.03864,15.53628V29.01919H65.3238V16.99673H59.1529V29.01919H57.43806V15.53628Z"/><path class="feb10245-6b5e-482e-b7f7-69f4d909c535" d="M78.61482,24.09829c0,3.58057-2.44483,5.14111-4.75147,5.14111-2.58252,0-4.57373-1.92041-4.57373-4.98144,0-3.24024,2.08985-5.14112,4.73145-5.14112C76.7613,19.11684,78.61482,21.13735,78.61482,24.09829Zm-7.57032.1001c0,2.12011,1.20215,3.7207,2.89795,3.7207,1.65577,0,2.898-1.58057,2.898-3.76074,0-1.64063-.80859-3.72119-2.8584-3.72119C71.93122,20.43716,71.0445,22.35757,71.0445,24.19839Z"/><path class="feb10245-6b5e-482e-b7f7-69f4d909c535" d="M82.52156,19.33706v4.20117h.41406l3.58789-4.20117h2.10937l-4.15966,4.38086c1.53759.16016,2.46435,1.20019,3.21337,2.94092A20.54941,20.54941,0,0,0,88.712,29.01919H86.898a12.96182,12.96182,0,0,1-.88721-1.98047,3.10062,3.10062,0,0,0-3.15429-2.28027h-.335v4.26074H80.80622V19.33706Z"/><path class="feb10245-6b5e-482e-b7f7-69f4d909c535" d="M95.733,29.01919,95.5948,27.799h-.05908a3.53728,3.53728,0,0,1-2.91749,1.44043,2.73765,2.73765,0,0,1-2.918-2.78076c0-2.34033,2.05029-3.6206,5.73681-3.60058v-.2002a1.985,1.985,0,0,0-2.16845-2.24072,4.70322,4.70322,0,0,0-2.48389.72021l-.39453-1.16015a5.85861,5.85861,0,0,1,3.13476-.86036c2.91748,0,3.62744,2.02051,3.62744,3.96094v3.6211a13.84294,13.84294,0,0,0,.15772,2.32031Zm-.25635-4.94092c-1.89257-.04-4.0415.29981-4.0415,2.18018a1.54628,1.54628,0,0,0,1.63623,1.68066A2.37685,2.37685,0,0,0,95.378,26.3185a1.86055,1.86055,0,0,0,.09863-.56005Z"/><path class="feb10245-6b5e-482e-b7f7-69f4d909c535" d="M100.74275,23.39809h.82812c1.459,0,2.44483-.68017,2.44483-1.58056,0-.85987-.769-1.40039-1.85352-1.40039a4.55491,4.55491,0,0,0-2.30615.68017L99.422,20.01724a5.99588,5.99588,0,0,1,3.17431-.88038c1.4585,0,3.23291.66016,3.23291,2.54053a2.45111,2.45111,0,0,1-2.14892,2.20069v.04a2.55245,2.55245,0,0,1,2.60254,2.42041c0,2.10059-2.10938,2.88086-4.12061,2.88086a6.46757,6.46757,0,0,1-3.09521-.78027l.45361-1.18018a5.44271,5.44271,0,0,0,2.52344.66016c1.439,0,2.34619-.70019,2.34619-1.66064,0-1.3003-1.34082-1.66016-2.77979-1.66016h-.86767Z"/><path class="feb10245-6b5e-482e-b7f7-69f4d909c535" d="M113.73738,29.01919l-.13819-1.22022h-.05908a3.53657,3.53657,0,0,1-2.91748,1.44043,2.73766,2.73766,0,0,1-2.918-2.78076c0-2.34033,2.05029-3.6206,5.73682-3.60058v-.2002a1.985,1.985,0,0,0-2.16846-2.24072,4.70453,4.70453,0,0,0-2.48389.72021l-.39453-1.16015a5.85864,5.85864,0,0,1,3.13477-.86036c2.91748,0,3.62744,2.02051,3.62744,3.96094v3.6211a13.843,13.843,0,0,0,.15771,2.32031Zm-.25635-4.94092c-1.89258-.04-4.04151.29981-4.04151,2.18018a1.54629,1.54629,0,0,0,1.63623,1.68066,2.37684,2.37684,0,0,0,2.30664-1.62061,1.86026,1.86026,0,0,0,.09864-.56005Z"/><path class="feb10245-6b5e-482e-b7f7-69f4d909c535" d="M124.26814,19.33706v1.40039h-2.97705v8.28174h-1.71485V20.73745h-2.97705V19.33706Z"/><path class="feb10245-6b5e-482e-b7f7-69f4d909c535" d="M127.46394,19.33706v3.28076a9.51717,9.51717,0,0,1,1.57715-.1001c2.14892,0,4.416.68018,4.416,3.26075a2.75856,2.75856,0,0,1-1.00537,2.2207,6.55626,6.55626,0,0,1-4.14014,1.12012,23.25658,23.25658,0,0,1-2.5625-.14014V19.33706Zm0,8.46191a9.87459,9.87459,0,0,0,1.28174.08008c1.30078,0,2.97656-.44043,2.97656-2.06055,0-1.68017-1.73486-2.04052-3.01611-2.04052a8.01584,8.01584,0,0,0-1.24219.1001Z"/><path class="feb10245-6b5e-482e-b7f7-69f4d909c535" d="M140.5782,23.39809h.82812c1.459,0,2.44482-.68017,2.44482-1.58056,0-.85987-.769-1.40039-1.85351-1.40039a4.558,4.558,0,0,0-2.30664.68017l-.4336-1.08007a5.99593,5.99593,0,0,1,3.17432-.88038c1.4585,0,3.23291.66016,3.23291,2.54053a2.45065,2.45065,0,0,1-2.14892,2.20069v.04a2.55245,2.55245,0,0,1,2.60253,2.42041c0,2.10059-2.10937,2.88086-4.1206,2.88086a6.46422,6.46422,0,0,1-3.09473-.78027l.45313-1.18018a5.44271,5.44271,0,0,0,2.52344.66016c1.43945,0,2.34619-.70019,2.34619-1.66064,0-1.3003-1.34082-1.66016-2.77979-1.66016h-.86767Z"/><path class="feb10245-6b5e-482e-b7f7-69f4d909c535" d="M153.57282,29.01919l-.13818-1.22022h-.05908a3.53727,3.53727,0,0,1-2.91748,1.44043,2.73766,2.73766,0,0,1-2.918-2.78076c0-2.34033,2.05029-3.6206,5.73682-3.60058v-.2002a1.985,1.985,0,0,0-2.16846-2.24072,4.70322,4.70322,0,0,0-2.48389.72021l-.39453-1.16015a5.85864,5.85864,0,0,1,3.13477-.86036c2.91748,0,3.62744,2.02051,3.62744,3.96094v3.6211a13.843,13.843,0,0,0,.15771,2.32031Zm-.25634-4.94092c-1.89258-.04-4.04151.29981-4.04151,2.18018a1.54629,1.54629,0,0,0,1.63623,1.68066,2.37684,2.37684,0,0,0,2.30664-1.62061,1.86026,1.86026,0,0,0,.09864-.56005Z"/><path class="feb10245-6b5e-482e-b7f7-69f4d909c535" d="M157.89265,19.33706H160.022l1.73487,4.88086c.23632.72021.65039,1.90088.86718,2.66064h.03955c.2168-.72021.749-2.26025,1.12354-3.32031l1.53809-4.22119h2.14892l.66992,9.68213h-1.65576l-.21679-4.6211c-.05909-1.04-.13819-2.28027-.17774-3.46044h-.05908c-.25635.87988-.5127,1.66015-1.04492,3.14062l-1.8335,4.88086H161.8946l-1.69531-4.78076c-.29541-.92041-.70947-2.3208-.94629-3.22071h-.07861c-.03955,1.14014-.09864,2.42042-.15772,3.48047l-.23681,4.58106h-1.59668Z"/><path class="feb10245-6b5e-482e-b7f7-69f4d909c535" d="M171.3614,24.49819a3.07854,3.07854,0,0,0,3.27246,3.36084,6.19738,6.19738,0,0,0,2.6416-.5l.2959,1.26026a7.63868,7.63868,0,0,1-3.17432.60009c-2.937,0-4.69189-1.96045-4.69189-4.88134,0-2.92041,1.6958-5.2212,4.4751-5.2212,3.11523,0,3.94287,2.78077,3.94287,4.561a6.6761,6.6761,0,0,1-.05908.82031Zm5.08642-1.26025c.01954-1.12012-.45361-2.86084-2.40527-2.86084-1.75488,0-2.52344,1.64062-2.66162,2.86084Z"/><path class="feb10245-6b5e-482e-b7f7-69f4d909c535" d="M181.95075,19.33706v3.90088h4.53418V19.33706h1.71534v9.68213h-1.71534V24.63833h-4.53418v4.38086h-1.71484V19.33706Z"/><path class="feb10245-6b5e-482e-b7f7-69f4d909c535" d="M192.71784,19.33706v3.30078a8.074,8.074,0,0,1,1.55762-.12012c2.05029,0,4.12012.86036,4.12012,3.24073a2.75867,2.75867,0,0,1-.98584,2.24072,5.95216,5.95216,0,0,1-3.84424,1.12012,23.25644,23.25644,0,0,1-2.5625-.14014V19.33706Zm0,8.46191a9.52986,9.52986,0,0,0,1.20264.08008c1.3208,0,2.76025-.56006,2.76025-2.06055,0-1.56054-1.38037-2.04052-2.68115-2.04052a7.76633,7.76633,0,0,0-1.28174.1001Zm8.59571-8.46191v9.68213h-1.71533V19.33706Z"/><rect class="fed9eaa6-2610-4d76-9bef-8e4bdba2e6fb" x="259.64229" width="252.28856" height="46.29787" rx="7.8645"/><path class="feb10245-6b5e-482e-b7f7-69f4d909c535" d="M322.86872,15.53628V29.01919h-1.73437V16.99673H314.897V29.01919h-1.7334V15.53628Z"/><path class="feb10245-6b5e-482e-b7f7-69f4d909c535" d="M334.56208,24.09829c0,3.58057-2.47168,5.14111-4.80273,5.14111-2.61133,0-4.624-1.92041-4.624-4.98144,0-3.24024,2.11231-5.14112,4.78321-5.14112C332.68806,19.11684,334.56208,21.13735,334.56208,24.09829Zm-7.65234.1001c0,2.12011,1.21484,3.7207,2.92871,3.7207,1.67383,0,2.92969-1.58057,2.92969-3.76074,0-1.64063-.81739-3.72119-2.88965-3.72119S326.90974,22.35757,326.90974,24.19839Z"/><path class="feb10245-6b5e-482e-b7f7-69f4d909c535" d="M338.50447,19.33706v4.20117h.41894l3.626-4.20117h2.13281l-4.20508,4.38086c1.55469.16016,2.49121,1.20019,3.248,2.94092a20.60976,20.60976,0,0,0,1.03711,2.36035h-1.834a12.90421,12.90421,0,0,1-.89648-1.98047,3.13164,3.13164,0,0,0-3.18848-2.28027h-.33886v4.26074h-1.7334V19.33706Z"/><path class="feb10245-6b5e-482e-b7f7-69f4d909c535" d="M351.8531,29.01919l-.13965-1.22022h-.06055a3.58767,3.58767,0,0,1-2.94922,1.44043,2.7533,2.7533,0,0,1-2.94921-2.78076c0-2.34033,2.07226-3.6206,5.79882-3.60058v-.2002a1.99268,1.99268,0,0,0-2.1914-2.24072,4.78889,4.78889,0,0,0-2.51075.72021l-.39941-1.16015a5.97248,5.97248,0,0,1,3.16895-.86036c2.94921,0,3.667,2.02051,3.667,3.96094v3.6211a13.73009,13.73009,0,0,0,.15918,2.32031Zm-.25977-4.94092c-1.91308-.04-4.085.29981-4.085,2.18018a1.55467,1.55467,0,0,0,1.6543,1.68066,2.3997,2.3997,0,0,0,2.33105-1.62061,1.84706,1.84706,0,0,0,.09961-.56005Z"/><path class="feb10245-6b5e-482e-b7f7-69f4d909c535" d="M356.91169,23.39809h.83692c1.47461,0,2.4707-.68017,2.4707-1.58056,0-.85987-.77637-1.40039-1.87305-1.40039a4.638,4.638,0,0,0-2.331.68017l-.43848-1.08007a6.10687,6.10687,0,0,1,3.208-.88038c1.47461,0,3.26855.66016,3.26855,2.54053a2.464,2.464,0,0,1-2.17285,2.20069v.04a2.568,2.568,0,0,1,2.63086,2.42041c0,2.10059-2.13183,2.88086-4.165,2.88086a6.59446,6.59446,0,0,1-3.1289-.78027l.459-1.18018a5.54628,5.54628,0,0,0,2.55078.66016c1.4541,0,2.3711-.70019,2.3711-1.66064,0-1.3003-1.35547-1.66016-2.80958-1.66016h-.87695Z"/><path class="feb10245-6b5e-482e-b7f7-69f4d909c535" d="M370.04255,29.01919,369.9029,27.799h-.06054a3.58768,3.58768,0,0,1-2.94922,1.44043,2.7533,2.7533,0,0,1-2.94922-2.78076c0-2.34033,2.07226-3.6206,5.79883-3.60058v-.2002a1.99269,1.99269,0,0,0-2.19141-2.24072,4.78886,4.78886,0,0,0-2.51074.72021l-.39942-1.16015a5.97251,5.97251,0,0,1,3.16895-.86036c2.94922,0,3.667,2.02051,3.667,3.96094v3.6211a13.73009,13.73009,0,0,0,.15918,2.32031Zm-.25976-4.94092c-1.91309-.04-4.085.29981-4.085,2.18018a1.55467,1.55467,0,0,0,1.6543,1.68066,2.39971,2.39971,0,0,0,2.33106-1.62061,1.84706,1.84706,0,0,0,.09961-.56005Z"/><path class="feb10245-6b5e-482e-b7f7-69f4d909c535" d="M380.68122,19.33706v1.40039h-3.00976v8.28174h-1.7334V20.73745h-3.00977V19.33706Z"/><path class="feb10245-6b5e-482e-b7f7-69f4d909c535" d="M383.90583,19.33706v3.28076a9.72043,9.72043,0,0,1,1.59473-.1001c2.17187,0,4.46387.68018,4.46387,3.26075a2.74631,2.74631,0,0,1-1.01661,2.2207,6.68207,6.68207,0,0,1-4.18457,1.12012,23.76205,23.76205,0,0,1-2.59082-.14014V19.33706Zm0,8.46191a10.08833,10.08833,0,0,0,1.2959.08008c1.31445,0,3.00879-.44043,3.00879-2.06055,0-1.68017-1.75391-2.04052-3.04883-2.04052a8.18294,8.18294,0,0,0-1.25586.1001Z"/><path class="feb10245-6b5e-482e-b7f7-69f4d909c535" d="M397.15388,23.39809h.83691c1.47461,0,2.47071-.68017,2.47071-1.58056,0-.85987-.77637-1.40039-1.873-1.40039a4.638,4.638,0,0,0-2.33106.68017l-.43847-1.08007a6.10687,6.10687,0,0,1,3.208-.88038c1.47461,0,3.26855.66016,3.26855,2.54053a2.464,2.464,0,0,1-2.17285,2.20069v.04a2.568,2.568,0,0,1,2.63086,2.42041c0,2.10059-2.13184,2.88086-4.165,2.88086a6.59453,6.59453,0,0,1-3.12891-.78027l.459-1.18018a5.54625,5.54625,0,0,0,2.55078.66016c1.4541,0,2.37109-.70019,2.37109-1.66064,0-1.3003-1.35547-1.66016-2.80957-1.66016h-.87695Z"/><path class="feb10245-6b5e-482e-b7f7-69f4d909c535" d="M410.28376,29.01919l-.13965-1.22022h-.06054a3.58626,3.58626,0,0,1-2.94922,1.44043,2.7533,2.7533,0,0,1-2.94922-2.78076c0-2.34033,2.07226-3.6206,5.79883-3.60058v-.2002a1.99269,1.99269,0,0,0-2.19141-2.24072,4.78886,4.78886,0,0,0-2.51074.72021l-.39942-1.16015a5.97251,5.97251,0,0,1,3.16895-.86036c2.94922,0,3.667,2.02051,3.667,3.96094v3.6211a13.73009,13.73009,0,0,0,.15918,2.32031Zm-.25976-4.94092c-1.91309-.04-4.085.29981-4.085,2.18018a1.55467,1.55467,0,0,0,1.65429,1.68066,2.3997,2.3997,0,0,0,2.33106-1.62061,1.84706,1.84706,0,0,0,.09961-.56005Z"/><path class="feb10245-6b5e-482e-b7f7-69f4d909c535" d="M414.64509,19.33706h2.15234l1.75293,4.88086c.23926.72021.65821,1.90088.877,2.66064h.04c.21875-.72021.75683-2.26025,1.13574-3.32031l1.55469-4.22119h2.17187l.67773,9.68213h-1.67382l-.21973-4.6211c-.05957-1.04-.13965-2.28027-.17871-3.46044h-.06055c-.25879.87988-.51758,1.66015-1.05566,3.14062l-1.85352,4.88086H418.69l-1.71387-4.78076c-.29882-.92041-.71679-2.3208-.95605-3.22071H415.94c-.04,1.14014-.09961,2.42042-.15918,3.48047l-.23926,4.58106h-1.61425Z"/><path class="feb10245-6b5e-482e-b7f7-69f4d909c535" d="M428.25251,24.49819a3.09494,3.09494,0,0,0,3.30762,3.36084,6.32009,6.32009,0,0,0,2.66992-.5l.29981,1.26026a7.79714,7.79714,0,0,1-3.209.60009c-2.96875,0-4.74316-1.96045-4.74316-4.88134,0-2.92041,1.71386-5.2212,4.52441-5.2212,3.14844,0,3.98535,2.78077,3.98535,4.561a6.75508,6.75508,0,0,1-.05957.82031Zm5.14063-1.26025c.0205-1.12012-.458-2.86084-2.43067-2.86084-1.77343,0-2.55078,1.64062-2.69043,2.86084Z"/><path class="feb10245-6b5e-482e-b7f7-69f4d909c535" d="M438.94978,19.33706v3.90088h4.584V19.33706h1.7334v9.68213h-1.7334V24.63833h-4.584v4.38086h-1.7334V19.33706Z"/><path class="feb10245-6b5e-482e-b7f7-69f4d909c535" d="M449.82673,19.33706v3.30078a8.2469,8.2469,0,0,1,1.57422-.12012c2.07324,0,4.165.86036,4.165,3.24073a2.74815,2.74815,0,0,1-.9961,2.24072,6.06461,6.06461,0,0,1-3.88574,1.12012,23.76205,23.76205,0,0,1-2.59082-.14014V19.33706Zm0,8.46191a9.73492,9.73492,0,0,0,1.21582.08008c1.335,0,2.79-.56006,2.79-2.06055,0-1.56054-1.39551-2.04052-2.71-2.04052a7.9284,7.9284,0,0,0-1.2959.1001Zm8.68848-8.46191v9.68213h-1.7334V19.33706Z"/><rect class="fed9eaa6-2610-4d76-9bef-8e4bdba2e6fb" x="2.62101" y="101.10638" width="508.39095" height="46.29787" rx="11.16404"/><path class="feb10245-6b5e-482e-b7f7-69f4d909c535" d="M172.23933,116.64321v5.64063h6.52148v-5.64063h1.76026v13.48242h-1.76026v-6.32129h-6.52148v6.32129h-1.74024V116.64321Z"/><path class="feb10245-6b5e-482e-b7f7-69f4d909c535" d="M188.83991,130.12563l-.13964-1.2207h-.06006a3.60516,3.60516,0,0,1-2.96094,1.44043,2.758,2.758,0,0,1-2.96045-2.78027c0-2.34082,2.08057-3.6211,5.82129-3.60059v-.20019a1.996,1.996,0,0,0-2.20068-2.24024,4.82135,4.82135,0,0,0-2.52051.71973l-.3999-1.16016a6.00572,6.00572,0,0,1,3.18066-.86035c2.96045,0,3.68066,2.02051,3.68066,3.96094v3.62109a13.62225,13.62225,0,0,0,.16016,2.32031Zm-.25976-4.9414c-1.92041-.04-4.10108.30078-4.10108,2.18066a1.558,1.558,0,0,0,1.66065,1.68067,2.40978,2.40978,0,0,0,2.34033-1.62012,1.844,1.844,0,0,0,.1001-.56055Z"/><path class="feb10245-6b5e-482e-b7f7-69f4d909c535" d="M200.02009,129.76528a6.48014,6.48014,0,0,1-2.78076.56055,4.59994,4.59994,0,0,1-4.8208-4.94141,4.91925,4.91925,0,0,1,5.20117-5.14062,5.88139,5.88139,0,0,1,2.44043.5l-.40039,1.36035a4.07889,4.07889,0,0,0-2.04-.46,3.65,3.65,0,0,0-.06006,7.28125,4.98967,4.98967,0,0,0,2.16016-.48047Z"/><path class="feb10245-6b5e-482e-b7f7-69f4d909c535" d="M208.94,120.444v1.39942H205.9195v8.28222h-1.74121v-8.28222h-3.02V120.444Z"/><path class="feb10245-6b5e-482e-b7f7-69f4d909c535" d="M210.4781,123.60415c0-1.24024-.04-2.24024-.08008-3.16016h1.58105l.08008,1.66016h.04a3.80525,3.80525,0,0,1,3.44043-1.88086c2.34082,0,4.10059,1.98047,4.10059,4.9209,0,3.48144-2.12012,5.20117-4.40039,5.20117a3.39776,3.39776,0,0,1-2.98145-1.51953h-.03906v5.26074H210.4781Zm1.74121,2.581a3.959,3.959,0,0,0,.0791.71973,2.7166,2.7166,0,0,0,2.64063,2.06055c1.86035,0,2.9414-1.52051,2.9414-3.74121,0-1.94043-1.02051-3.60059-2.88086-3.60059a2.81049,2.81049,0,0,0-2.66113,2.18066,2.87452,2.87452,0,0,0-.11914.71973Z"/><path class="feb10245-6b5e-482e-b7f7-69f4d909c535" d="M230.62068,125.20474c0,3.581-2.48145,5.14062-4.82129,5.14062-2.6211,0-4.6416-1.91992-4.6416-4.98047,0-3.24121,2.12109-5.1416,4.80175-5.1416C228.73982,120.22329,230.62068,122.2438,230.62068,125.20474Zm-7.68164.0996c0,2.1211,1.21972,3.72071,2.94043,3.72071,1.67968,0,2.94042-1.58008,2.94042-3.76074,0-1.63965-.82031-3.72071-2.90039-3.72071C223.83845,121.5436,222.939,123.4645,222.939,125.30434Z"/><path class="feb10245-6b5e-482e-b7f7-69f4d909c535" d="M234.45857,120.444v4.08008c0,1.541-.02051,2.501-.10059,3.88086l.06055.02051c.58008-1.18067.91992-1.86035,1.55957-2.98047l3.02148-5.001h2.05957v9.68164h-1.67968v-4.10058c0-1.58106.04-2.40039.12011-3.96094H239.439c-.62012,1.24023-1.04,2.02051-1.60059,3-.91992,1.501-1.98047,3.36133-3.02051,5.06152h-2.02051V120.444Zm1.13965-3.9414c.06054.86035.48046,1.5205,1.28027,1.5205.86035,0,1.26074-.64062,1.36035-1.5205h1.26074a2.42029,2.42029,0,0,1-2.66113,2.48047,2.33026,2.33026,0,0,1-2.52051-2.48047Z"/><path class="feb10245-6b5e-482e-b7f7-69f4d909c535" d="M245.65876,120.444v4.2002h.41992l3.64063-4.2002h2.14062l-4.22168,4.38086c1.56055.16016,2.501,1.2002,3.26075,2.94043a20.55382,20.55382,0,0,0,1.041,2.36035h-1.84082a12.88316,12.88316,0,0,1-.90039-1.98047,3.14226,3.14226,0,0,0-3.20019-2.28027h-.33985v4.26074h-1.74121V120.444Z"/><path class="feb10245-6b5e-482e-b7f7-69f4d909c535" d="M255.11872,120.444v4.08008c0,1.541-.0205,2.501-.10058,3.88086l.06054.02051c.58008-1.18067.91993-1.86035,1.55957-2.98047l3.02149-5.001h2.05957v9.68164h-1.67969v-4.10058c0-1.58106.04-2.40039.12012-3.96094h-.06055c-.62012,1.24023-1.04,2.02051-1.60058,3-.91993,1.501-1.98047,3.36133-3.02051,5.06152h-2.02051V120.444Z"/><path class="feb10245-6b5e-482e-b7f7-69f4d909c535" d="M276.77888,120.444v9.68164h-1.75977v-8.28222h-4.501v8.28222h-1.74121V120.444Z"/><path class="feb10245-6b5e-482e-b7f7-69f4d909c535" d="M279.6363,123.60415c0-1.24024-.04-2.24024-.08008-3.16016h1.58106l.08008,1.66016h.04a3.80526,3.80526,0,0,1,3.44043-1.88086c2.34082,0,4.10059,1.98047,4.10059,4.9209,0,3.48144-2.12012,5.20117-4.40039,5.20117a3.39777,3.39777,0,0,1-2.98145-1.51953h-.03906v5.26074H279.6363Zm1.74121,2.581a3.959,3.959,0,0,0,.0791.71973,2.71661,2.71661,0,0,0,2.64063,2.06055c1.86035,0,2.9414-1.52051,2.9414-3.74121,0-1.94043-1.0205-3.60059-2.88085-3.60059a2.8105,2.8105,0,0,0-2.66114,2.18066,2.87452,2.87452,0,0,0-.11914.71973Z"/><path class="feb10245-6b5e-482e-b7f7-69f4d909c535" d="M299.77888,125.20474c0,3.581-2.48145,5.14062-4.82129,5.14062-2.62109,0-4.6416-1.91992-4.6416-4.98047,0-3.24121,2.12109-5.1416,4.80176-5.1416C297.898,120.22329,299.77888,122.2438,299.77888,125.20474Zm-7.68164.0996c0,2.1211,1.21973,3.72071,2.94043,3.72071,1.67969,0,2.94043-1.58008,2.94043-3.76074,0-1.63965-.82031-3.72071-2.90039-3.72071C292.99665,121.5436,292.09724,123.4645,292.09724,125.30434Z"/><path class="feb10245-6b5e-482e-b7f7-69f4d909c535" d="M307.75739,115.92251v4.34082c2.82032.20019,4.86133,1.98047,4.86133,5.001a4.81223,4.81223,0,0,1-4.86133,5.041v3.78125h-1.60058v-3.76074c-2.80078-.18067-4.86133-1.94043-4.86133-4.96094,0-3.20117,2.14063-4.88086,4.86133-5.10156v-4.34082Zm-1.60058,5.541a3.89947,3.89947,0,0,0,0,7.64161Zm1.60058,7.64161a3.63538,3.63538,0,0,0,3.12012-3.84082,3.59626,3.59626,0,0,0-3.12012-3.80079Z"/><path class="feb10245-6b5e-482e-b7f7-69f4d909c535" d="M316.43708,120.444v4.08008c0,1.541-.02051,2.501-.10058,3.88086l.06054.02051c.58008-1.18067.91993-1.86035,1.55957-2.98047l3.02149-5.001h2.05957v9.68164H321.358v-4.10058c0-1.58106.04-2.40039.12012-3.96094h-.06055c-.62012,1.24023-1.04,2.02051-1.60058,3-.91993,1.501-1.98047,3.36133-3.02051,5.06152H314.776V120.444Z"/><path class="feb10245-6b5e-482e-b7f7-69f4d909c535" d="M333.23786,120.444v9.68164h-1.74023v-8.30175h-3.32031v2.5205c0,2.72071-.26075,4.541-1.52051,5.36133a2.82911,2.82911,0,0,1-1.9209.59961l-.17969-1.37988a2.18618,2.18618,0,0,0,.96-.40039c.90039-.66016,1-2.02051,1-4.18067V120.444Z"/><path class="feb10245-6b5e-482e-b7f7-69f4d909c535" d="M343.25642,130.12563h-1.74024v-4.06054h-1.2998a2.292,2.292,0,0,0-1.62109.54c-.71973.58007-.9795,1.78027-1.35938,2.7207a6.0425,6.0425,0,0,1-.40039.7998h-1.88086a6.22978,6.22978,0,0,0,.60059-1.10058c.41992-.93946.66015-2.2002,1.5205-2.91992a2.30367,2.30367,0,0,1,1.09961-.56055V125.485a2.57826,2.57826,0,0,1-2.56054-2.40039,2.33172,2.33172,0,0,1,1.28027-2.10059,6.78121,6.78121,0,0,1,3.24121-.66015,26.82585,26.82585,0,0,1,3.12012.20019Zm-1.74024-8.52148a9.73651,9.73651,0,0,0-1.46-.10059c-1.20019,0-2.62109.33985-2.62109,1.68067,0,1.24023,1.541,1.68066,2.58105,1.68066h1.5Z"/><rect class="fed9eaa6-2610-4d76-9bef-8e4bdba2e6fb" y="151.65957" width="508.39095" height="46.29787" rx="11.16404"/><path class="feb10245-6b5e-482e-b7f7-69f4d909c535" d="M142.49861,167.19643v5.98047h.54l4.6211-5.98047h2.10058l-5.10107,6.18067c2.22022.2998,3.08057,1.66015,3.78076,3.48047a35.30459,35.30459,0,0,0,1.48,3.82129h-1.88037a23.89228,23.89228,0,0,1-1.22021-3.18067c-.62012-1.78027-1.48-3.001-3.76075-3.001h-.56v6.18164h-1.72022V167.19643Z"/><path class="feb10245-6b5e-482e-b7f7-69f4d909c535" d="M157.15876,180.67886l-.13965-1.22071h-.06005a3.60584,3.60584,0,0,1-2.96094,1.44043,2.758,2.758,0,0,1-2.96045-2.78027c0-2.34082,2.08056-3.62109,5.82129-3.60059v-.20019a1.996,1.996,0,0,0-2.20069-2.24024,4.82134,4.82134,0,0,0-2.5205.71973l-.39991-1.16016a6.00585,6.00585,0,0,1,3.18067-.86035c2.96045,0,3.68066,2.02051,3.68066,3.96094v3.62109a13.62237,13.62237,0,0,0,.16016,2.32032Zm-.25976-4.94141c-1.92041-.04-4.10108.30078-4.10108,2.18066a1.558,1.558,0,0,0,1.66065,1.68067,2.40977,2.40977,0,0,0,2.34033-1.62012,1.84391,1.84391,0,0,0,.1001-.56055Z"/><path class="feb10245-6b5e-482e-b7f7-69f4d909c535" d="M161.43806,174.15737c0-1.24023-.04-2.24023-.08008-3.16015h1.58008l.08008,1.66015h.04a3.806,3.806,0,0,1,3.44091-1.88086c2.34034,0,4.10059,1.98047,4.10059,4.9209,0,3.48145-2.12012,5.20117-4.40088,5.20117a3.39489,3.39489,0,0,1-2.98047-1.51953h-.04v5.26074h-1.74023Zm1.74023,2.58106a3.95585,3.95585,0,0,0,.08008.71972,2.71577,2.71577,0,0,0,2.64063,2.06055c1.86035,0,2.94043-1.52051,2.94043-3.74121,0-1.94043-1.02-3.60059-2.88037-3.60059a2.8091,2.8091,0,0,0-2.66065,2.18067,2.85307,2.85307,0,0,0-.12012.71972Z"/><path class="feb10245-6b5e-482e-b7f7-69f4d909c535" d="M179.1988,170.99722v1.39941h-3.02051v8.28223h-1.74023v-8.28223h-3.02051v-1.39941Z"/><path class="feb10245-6b5e-482e-b7f7-69f4d909c535" d="M185.95857,180.67886l-.13965-1.22071h-.06006a3.60584,3.60584,0,0,1-2.96094,1.44043,2.758,2.758,0,0,1-2.96045-2.78027c0-2.34082,2.08057-3.62109,5.82129-3.60059v-.20019a1.996,1.996,0,0,0-2.20068-2.24024,4.8214,4.8214,0,0,0-2.52051.71973l-.3999-1.16016a6.00581,6.00581,0,0,1,3.18066-.86035c2.96045,0,3.68067,2.02051,3.68067,3.96094v3.62109a13.62346,13.62346,0,0,0,.16015,2.32032Zm-.25977-4.94141c-1.92041-.04-4.10107.30078-4.10107,2.18066a1.558,1.558,0,0,0,1.66064,1.68067,2.40976,2.40976,0,0,0,2.34033-1.62012,1.84391,1.84391,0,0,0,.1001-.56055Z"/><path class="feb10245-6b5e-482e-b7f7-69f4d909c535" d="M202.439,170.99722v9.68164h-1.75977v-8.28223h-4.50146v8.28223h-1.74024v-9.68164Z"/><path class="feb10245-6b5e-482e-b7f7-69f4d909c535" d="M205.29646,174.15737c0-1.24023-.04-2.24023-.08008-3.16015h1.58105l.08008,1.66015h.04a3.80525,3.80525,0,0,1,3.44043-1.88086c2.34082,0,4.10059,1.98047,4.10059,4.9209,0,3.48145-2.12012,5.20117-4.40039,5.20117a3.39776,3.39776,0,0,1-2.98145-1.51953h-.03906v5.26074h-1.74121Zm1.74121,2.58106a3.9589,3.9589,0,0,0,.0791.71972,2.71659,2.71659,0,0,0,2.64062,2.06055c1.86036,0,2.94141-1.52051,2.94141-3.74121,0-1.94043-1.02051-3.60059-2.88086-3.60059a2.81049,2.81049,0,0,0-2.66113,2.18067,2.87445,2.87445,0,0,0-.11914.71972Z"/><path class="feb10245-6b5e-482e-b7f7-69f4d909c535" d="M225.439,175.758c0,3.58105-2.48145,5.14062-4.82129,5.14062-2.6211,0-4.64161-1.91992-4.64161-4.98047,0-3.24121,2.1211-5.1416,4.80176-5.1416C223.55818,170.77651,225.439,172.797,225.439,175.758Zm-7.68165.09961c0,2.12109,1.21973,3.7207,2.94043,3.7207,1.67969,0,2.94043-1.58008,2.94043-3.76074,0-1.63965-.82031-3.7207-2.90039-3.7207C218.65681,172.09683,217.75739,174.01772,217.75739,175.85757Z"/><path class="feb10245-6b5e-482e-b7f7-69f4d909c535" d="M228.21736,170.99722l1.38086,2.08007c.35937.54.66015,1.04.97949,1.58008h.06054c.32032-.58008.63965-1.08008.96-1.60058l1.36035-2.05957H234.859l-3.30078,4.68066,3.40039,5.001h-2l-1.41993-2.18067c-.38085-.55957-.70019-1.09961-1.041-1.67969h-.04c-.31934.58008-.66016,1.09961-1.01953,1.67969l-1.40039,2.18067h-1.94043l3.44043-4.94141-3.28028-4.74023Z"/><path class="feb10245-6b5e-482e-b7f7-69f4d909c535" d="M245.13923,175.758c0,3.58105-2.48144,5.14062-4.82129,5.14062-2.62109,0-4.6416-1.91992-4.6416-4.98047,0-3.24121,2.12109-5.1416,4.80176-5.1416C243.25837,170.77651,245.13923,172.797,245.13923,175.758Zm-7.68164.09961c0,2.12109,1.21973,3.7207,2.94043,3.7207,1.67969,0,2.94043-1.58008,2.94043-3.76074,0-1.63965-.82031-3.7207-2.90039-3.7207C238.357,172.09683,237.45759,174.01772,237.45759,175.85757Z"/><path class="feb10245-6b5e-482e-b7f7-69f4d909c535" d="M254.71833,170.99722v8.36132l1,.02051-.09961,4.38086h-1.38086l-.08007-3.08105h-6.70118l-.08007,3.08105h-1.37989l-.08008-4.38086.82032-.02051a7.54729,7.54729,0,0,0,.96-1.98046,12.78358,12.78358,0,0,0,.56054-3.86036v-2.5205Zm-4.90136,2.94043a12.82653,12.82653,0,0,1-.5,3.60058,9.21263,9.21263,0,0,1-.78028,1.80078h4.46094v-7.00195H249.817Z"/><path class="feb10245-6b5e-482e-b7f7-69f4d909c535" d="M265.05818,180.67886h-1.74024v-4.06055h-1.2998a2.292,2.292,0,0,0-1.6211.54c-.71972.58008-.97949,1.78027-1.35937,2.7207a6.04265,6.04265,0,0,1-.40039.79981h-1.88086a6.29343,6.29343,0,0,0,.60058-1.10059c.41993-.93945.66016-2.20019,1.52051-2.91992a2.30376,2.30376,0,0,1,1.09961-.56055v-.05957a2.57826,2.57826,0,0,1-2.56055-2.40039,2.33173,2.33173,0,0,1,1.28028-2.10059,6.78121,6.78121,0,0,1,3.24121-.66015,26.82585,26.82585,0,0,1,3.12012.20019Zm-1.74024-8.52149a9.738,9.738,0,0,0-1.46-.10058c-1.20019,0-2.62109.33984-2.62109,1.68066,0,1.24023,1.541,1.68066,2.58105,1.68066h1.5Z"/><path class="feb10245-6b5e-482e-b7f7-69f4d909c535" d="M273.897,170.99722v4.20019h.41993l3.64062-4.20019h2.14063l-4.22168,4.38086c1.56054.16015,2.501,1.20019,3.26074,2.94042a20.55466,20.55466,0,0,0,1.041,2.36036h-1.84082a12.88406,12.88406,0,0,1-.90039-1.98047,3.14224,3.14224,0,0,0-3.20019-2.28028H273.897v4.26075h-1.74121v-9.68164Z"/><path class="feb10245-6b5e-482e-b7f7-69f4d909c535" d="M287.71736,170.99722v4.20019h.41992l3.64062-4.20019h2.14063l-4.22168,4.38086c1.56054.16015,2.501,1.20019,3.26074,2.94042a20.55486,20.55486,0,0,0,1.041,2.36036h-1.84082a12.883,12.883,0,0,1-.9004-1.98047,3.14224,3.14224,0,0,0-3.20019-2.28028h-.33984v4.26075h-1.74122v-9.68164Z"/><path class="feb10245-6b5e-482e-b7f7-69f4d909c535" d="M304.19782,175.758c0,3.58105-2.48144,5.14062-4.82128,5.14062-2.6211,0-4.64161-1.91992-4.64161-4.98047,0-3.24121,2.1211-5.1416,4.80176-5.1416C302.317,170.77651,304.19782,172.797,304.19782,175.758Zm-7.68164.09961c0,2.12109,1.21973,3.7207,2.94043,3.7207,1.67969,0,2.94043-1.58008,2.94043-3.76074,0-1.63965-.82031-3.7207-2.90039-3.7207C297.4156,172.09683,296.51618,174.01772,296.51618,175.85757Z"/><path class="feb10245-6b5e-482e-b7f7-69f4d909c535" d="M313.75739,170.99722v9.68164h-1.74023V172.3771h-3.32031v2.52051c0,2.7207-.26074,4.541-1.52051,5.36132a2.82906,2.82906,0,0,1-1.9209.59961l-.17969-1.37988a2.18615,2.18615,0,0,0,.96-.40039c.90039-.66016,1-2.02051,1-4.18066v-3.90039Z"/><path class="feb10245-6b5e-482e-b7f7-69f4d909c535" d="M323.97712,170.99722v9.68164h-1.74023V172.3771h-3.32032v2.52051c0,2.7207-.26074,4.541-1.5205,5.36132a2.82906,2.82906,0,0,1-1.9209.59961l-.17969-1.37988a2.18611,2.18611,0,0,0,.96-.40039c.90039-.66016,1-2.02051,1-4.18066v-3.90039Z"/><path class="feb10245-6b5e-482e-b7f7-69f4d909c535" d="M327.83552,176.15835a3.102,3.102,0,0,0,3.32129,3.36035,6.36,6.36,0,0,0,2.67969-.5l.30078,1.25977a7.83817,7.83817,0,0,1-3.22071.60058c-2.98046,0-4.76171-1.96094-4.76171-4.88086,0-2.9209,1.7207-5.22168,4.541-5.22168,3.16113,0,4.001,2.78125,4.001,4.56153a6.78039,6.78039,0,0,1-.05957.82031Zm5.16113-1.26074c.02051-1.12012-.46-2.86036-2.44043-2.86036-1.78027,0-2.56054,1.63965-2.70019,2.86036Z"/><path class="feb10245-6b5e-482e-b7f7-69f4d909c535" d="M344.43611,170.99722v8.36132l1,.02051-.09961,4.38086h-1.38086l-.08008-3.08105h-6.70117l-.08008,3.08105h-1.37988l-.08008-4.38086.82031-.02051a7.54729,7.54729,0,0,0,.96-1.98046,12.78359,12.78359,0,0,0,.56055-3.86036v-2.5205Zm-4.90137,2.94043a12.82653,12.82653,0,0,1-.5,3.60058,9.21261,9.21261,0,0,1-.78027,1.80078h4.46093v-7.00195h-3.18066Z"/><path class="feb10245-6b5e-482e-b7f7-69f4d909c535" d="M348.51521,170.99722l3.20117,4.2207h.35937v-4.2207h1.68067v4.2207h.33984l3.20117-4.2207h2.02051l-3.82129,4.40039a3.382,3.382,0,0,1,2.90039,2.56054,23.45741,23.45741,0,0,0,1.06055,2.72071h-1.75977a14.21867,14.21867,0,0,1-.88085-2.22071,2.67724,2.67724,0,0,0-2.76075-2.06054h-.2998v4.28125h-1.68067v-4.28125h-.31933a2.65016,2.65016,0,0,0-2.78125,2.08105,16.99189,16.99189,0,0,1-.91992,2.2002h-1.7002a28.33922,28.33922,0,0,0,1.06055-2.7002c.59961-1.56055,1.46-2.4209,2.91992-2.58105l-3.84082-4.40039Z"/><path class="feb10245-6b5e-482e-b7f7-69f4d909c535" d="M361.815,170.99722l2.12012,5.7207c.2207.64062.46,1.40039.62012,1.98047h.04c.18066-.58008.37988-1.32031.62011-2.02051l1.9209-5.68066h1.86035l-2.64062,6.90136c-1.26074,3.32032-2.1211,5.02051-3.32129,6.06055a4.76029,4.76029,0,0,1-2.16016,1.14062l-.44043-1.48046a4.64728,4.64728,0,0,0,1.541-.86036,5.34179,5.34179,0,0,0,1.48047-1.96,1.25921,1.25921,0,0,0,.13965-.41992,1.52714,1.52714,0,0,0-.12012-.46l-3.58106-8.92187Z"/><path class="fed9eaa6-2610-4d76-9bef-8e4bdba2e6fb" d="M11.164,202.21277H497.22691a11.164,11.164,0,0,1,11.164,11.164v13.90383a21.23,21.23,0,0,1-21.23,21.23H21.2254A21.2254,21.2254,0,0,1,0,227.28524V213.37681a11.164,11.164,0,0,1,11.164-11.164Z"/><path class="feb10245-6b5e-482e-b7f7-69f4d909c535" d="M131.52839,217.74917v5.68066c0,2.14063-.04,3.90137-.16016,5.70117l.04.02051c.68018-1.40039,1.52051-2.86133,2.50049-4.46093l4.36133-6.94141h1.74023v13.48242H138.3697v-5.74121c0-2.18066.02-3.78125.16016-5.48145l-.06006-.01953a41.09884,41.09884,0,0,1-2.50049,4.541l-4.2207,6.70117h-1.86036V217.74917Z"/><path class="feb10245-6b5e-482e-b7f7-69f4d909c535" d="M144.68806,221.55v3.90039h4.60107V221.55h1.74024v9.68164h-1.74024v-4.38086h-4.60107v4.38086h-1.74024V221.55Z"/><path class="feb10245-6b5e-482e-b7f7-69f4d909c535" d="M159.669,217.02847v4.34082c2.82031.20019,4.86084,1.98046,4.86084,5.001a4.81157,4.81157,0,0,1-4.86084,5.041v3.78125h-1.60059v-3.76074c-2.80029-.18067-4.86084-1.94043-4.86084-4.96094,0-3.20117,2.14014-4.88086,4.86084-5.10156v-4.34082Zm-1.60059,5.541a3.89934,3.89934,0,0,0,0,7.6416Zm1.60059,7.6416a3.63574,3.63574,0,0,0,3.1206-3.84082,3.59662,3.59662,0,0,0-3.1206-3.80078Z"/><path class="feb10245-6b5e-482e-b7f7-69f4d909c535" d="M175.48933,226.31069c0,3.58106-2.48047,5.14063-4.8208,5.14063-2.62061,0-4.64112-1.91992-4.64112-4.98047,0-3.24121,2.12061-5.1416,4.80079-5.1416C173.609,221.32925,175.48933,223.34975,175.48933,226.31069Zm-7.68164.09961c0,2.1211,1.22021,3.7207,2.94043,3.7207,1.68066,0,2.94092-1.58007,2.94092-3.76074,0-1.63965-.82032-3.7207-2.90088-3.7207C168.70808,222.64956,167.80769,224.57046,167.80769,226.4103Z"/><path class="feb10245-6b5e-482e-b7f7-69f4d909c535" d="M177.70759,224.71011c0-1.24024-.04-2.24024-.08008-3.16016h1.58008l.08008,1.66016h.04a3.806,3.806,0,0,1,3.44092-1.88086c2.34033,0,4.10058,1.98047,4.10058,4.9209,0,3.48144-2.12012,5.20117-4.40088,5.20117a3.39489,3.39489,0,0,1-2.98047-1.51953h-.04v5.26074h-1.74023Zm1.74023,2.58105a3.956,3.956,0,0,0,.08008.71973,2.71577,2.71577,0,0,0,2.64063,2.06054c1.86035,0,2.94043-1.5205,2.94043-3.74121,0-1.94043-1.02-3.60058-2.88037-3.60058a2.80911,2.80911,0,0,0-2.66065,2.18066,2.85315,2.85315,0,0,0-.12012.71973Z"/><path class="feb10245-6b5e-482e-b7f7-69f4d909c535" d="M189.18708,221.55h2.16016l1.76025,4.88086c.24024.71973.66016,1.90039.88037,2.66016h.04c.22022-.71973.76026-2.26075,1.14014-3.32032l1.56055-4.2207h2.18017l.68018,9.68164h-1.68018l-.22021-4.62109c-.06006-1.04-.14014-2.28028-.17969-3.46094h-.06006c-.26025.88086-.52051,1.66113-1.06055,3.14062L194.5279,231.172h-1.28027l-1.72022-4.78125c-.30029-.9209-.72021-2.32031-.96044-3.2207h-.07959c-.04,1.13965-.1001,2.41992-.16016,3.48047l-.24024,4.58105h-1.62011Z"/><path class="feb10245-6b5e-482e-b7f7-69f4d909c535" d="M207.2281,231.23159l-.13965-1.2207h-.06055a3.60388,3.60388,0,0,1-2.96,1.44043A2.75813,2.75813,0,0,1,201.107,228.671c0-2.34082,2.08008-3.62109,5.82129-3.60058v-.2002A1.99564,1.99564,0,0,0,204.7281,222.63a4.81884,4.81884,0,0,0-2.52051.71972l-.40039-1.16015a6.00316,6.00316,0,0,1,3.18066-.86035c2.96094,0,3.68067,2.0205,3.68067,3.96093v3.6211a13.62342,13.62342,0,0,0,.16015,2.32031Zm-.25977-4.94141c-1.9209-.04-4.10058.30079-4.10058,2.18067a1.5576,1.5576,0,0,0,1.66015,1.68066,2.40865,2.40865,0,0,0,2.33985-1.62011,1.8303,1.8303,0,0,0,.10058-.56055Z"/><path class="feb10245-6b5e-482e-b7f7-69f4d909c535" d="M213.20759,221.55v8.30176h4.46094V221.55h1.74023v8.36133l1,.02051-.10058,4.38086H218.9488l-.08008-3.08106h-7.40234V221.55Z"/><path class="feb10245-6b5e-482e-b7f7-69f4d909c535" d="M224.12751,221.55V225.63c0,1.541-.02051,2.501-.10058,3.88086l.06054.02051c.58008-1.18067.91992-1.86036,1.55957-2.98047l3.02149-5.001h2.05957v9.68164h-1.67969V227.131c0-1.58105.04-2.40039.12012-3.96093H229.108c-.62012,1.24023-1.04,2.02051-1.60059,3-.91992,1.501-1.97949,3.36133-3.0205,5.06152h-2.02051V221.55Z"/><path class="feb10245-6b5e-482e-b7f7-69f4d909c535" d="M240.72712,231.23159h-1.74023V227.171h-1.29981a2.29205,2.29205,0,0,0-1.62109.54c-.71973.58008-.97949,1.78028-1.35938,2.72071a6.04128,6.04128,0,0,1-.40039.7998h-1.88086a6.22925,6.22925,0,0,0,.60059-1.10059c.41992-.93945.66016-2.20019,1.52051-2.91992a2.30357,2.30357,0,0,1,1.09961-.56054V226.591a2.57826,2.57826,0,0,1-2.56055-2.40039,2.33172,2.33172,0,0,1,1.28027-2.10059,6.78121,6.78121,0,0,1,3.24121-.66016,26.82328,26.82328,0,0,1,3.12012.2002Zm-1.74023-8.52148a9.73671,9.73671,0,0,0-1.46-.10059c-1.2002,0-2.6211.33984-2.6211,1.68066,0,1.24024,1.541,1.68067,2.58106,1.68067h1.5Z"/><path class="feb10245-6b5e-482e-b7f7-69f4d909c535" d="M247.82575,224.71011c0-1.24024-.04-2.24024-.08007-3.16016h1.58105l.08008,1.66016h.04a3.80522,3.80522,0,0,1,3.44043-1.88086c2.34082,0,4.10058,1.98047,4.10058,4.9209,0,3.48144-2.12011,5.20117-4.40039,5.20117a3.39774,3.39774,0,0,1-2.98144-1.51953H249.567v5.26074h-1.74122Zm1.74122,2.58105a3.959,3.959,0,0,0,.0791.71973,2.71659,2.71659,0,0,0,2.64062,2.06054c1.86035,0,2.94141-1.5205,2.94141-3.74121,0-1.94043-1.02051-3.60058-2.88086-3.60058a2.81048,2.81048,0,0,0-2.66113,2.18066,2.87452,2.87452,0,0,0-.11914.71973Z"/><path class="feb10245-6b5e-482e-b7f7-69f4d909c535" d="M264.566,231.23159l-.13965-1.2207h-.06055a3.60387,3.60387,0,0,1-2.96,1.44043,2.75813,2.75813,0,0,1-2.96094-2.78028c0-2.34082,2.08008-3.62109,5.82129-3.60058v-.2002A1.99564,1.99564,0,0,0,262.066,222.63a4.81884,4.81884,0,0,0-2.52051.71972l-.40039-1.16015a6.00316,6.00316,0,0,1,3.18066-.86035c2.96094,0,3.68067,2.0205,3.68067,3.96093v3.6211a13.62342,13.62342,0,0,0,.16015,2.32031Zm-.25977-4.94141c-1.9209-.04-4.10058.30079-4.10058,2.18067a1.5576,1.5576,0,0,0,1.66015,1.68066,2.40865,2.40865,0,0,0,2.33985-1.62011,1.8303,1.8303,0,0,0,.10058-.56055Z"/><path class="feb10245-6b5e-482e-b7f7-69f4d909c535" d="M269.64607,225.6105h.83984c1.48047,0,2.48047-.68067,2.48047-1.58008,0-.86035-.78027-1.40039-1.87988-1.40039a4.67229,4.67229,0,0,0-2.34082.67969l-.44043-1.08008a6.15487,6.15487,0,0,1,3.2207-.87989c1.48047,0,3.28125.66016,3.28125,2.54a2.46964,2.46964,0,0,1-2.18066,2.20118V226.13a2.5746,2.5746,0,0,1,2.64062,2.4209c0,2.10058-2.14062,2.88086-4.18066,2.88086a6.62749,6.62749,0,0,1-3.14063-.78028l.46-1.18066a5.57177,5.57177,0,0,0,2.56055.66015c1.46,0,2.37988-.70019,2.37988-1.66015,0-1.29981-1.36035-1.66016-2.82031-1.66016h-.87988Z"/><path class="feb10245-6b5e-482e-b7f7-69f4d909c535" d="M277.4654,224.71011c0-1.24024-.04-2.24024-.08008-3.16016h1.58106l.08008,1.66016h.04a3.80522,3.80522,0,0,1,3.44043-1.88086c2.34082,0,4.10058,1.98047,4.10058,4.9209,0,3.48144-2.12012,5.20117-4.40039,5.20117a3.39774,3.39774,0,0,1-2.98144-1.51953h-.04v5.26074H277.4654Zm1.74024,2.58105a3.956,3.956,0,0,0,.08008.71973,2.71658,2.71658,0,0,0,2.64062,2.06054c1.86035,0,2.94141-1.5205,2.94141-3.74121,0-1.94043-1.02051-3.60058-2.88086-3.60058a2.8105,2.8105,0,0,0-2.66114,2.18066,2.8752,2.8752,0,0,0-.12011.71973Z"/><path class="feb10245-6b5e-482e-b7f7-69f4d909c535" d="M294.20564,231.23159l-.13965-1.2207h-.06055a3.60388,3.60388,0,0,1-2.96,1.44043,2.75813,2.75813,0,0,1-2.96094-2.78028c0-2.34082,2.08008-3.62109,5.82129-3.60058v-.2002a1.99564,1.99564,0,0,0-2.20019-2.24023,4.81884,4.81884,0,0,0-2.52051.71972l-.40039-1.16015a6.00316,6.00316,0,0,1,3.18066-.86035c2.96094,0,3.68067,2.0205,3.68067,3.96093v3.6211a13.62342,13.62342,0,0,0,.16015,2.32031Zm-.25977-4.94141c-1.9209-.04-4.10058.30079-4.10058,2.18067a1.5576,1.5576,0,0,0,1.66015,1.68066,2.40865,2.40865,0,0,0,2.33985-1.62011,1.8303,1.8303,0,0,0,.10058-.56055Z"/><path class="feb10245-6b5e-482e-b7f7-69f4d909c535" d="M305.8072,218.2687a13.31388,13.31388,0,0,1-2.02051.44043,4.7469,4.7469,0,0,0-3.4414,1.82031,6.90985,6.90985,0,0,0-1.05957,3.2002h.05957a3.66345,3.66345,0,0,1,3.36132-2.17969c2.37989,0,4.12012,1.7002,4.12012,4.78027,0,3.16114-1.63965,5.1211-4.48047,5.1211-3.40039,0-4.52148-3.26074-4.52148-6.48145a8.60119,8.60119,0,0,1,1.501-5.36035,5.80916,5.80916,0,0,1,4.16016-2.28125,14.10728,14.10728,0,0,0,2.40137-.51953Zm-3.46094,4.58105a2.35289,2.35289,0,0,0-2.18066,1.32032,4.23463,4.23463,0,0,0-.48047,2.06054c0,1.60059.78027,3.90039,2.70117,3.90039,1.94043,0,2.66016-1.87988,2.66016-3.66015C305.04646,224.88979,304.42634,222.84975,302.34626,222.84975Z"/><path class="feb10245-6b5e-482e-b7f7-69f4d909c535" d="M317.8072,226.31069c0,3.58106-2.48145,5.14063-4.82129,5.14063-2.62109,0-4.6416-1.91992-4.6416-4.98047,0-3.24121,2.12109-5.1416,4.80176-5.1416C315.92634,221.32925,317.8072,223.34975,317.8072,226.31069Zm-7.68164.09961c0,2.1211,1.21973,3.7207,2.94043,3.7207,1.67969,0,2.94043-1.58007,2.94043-3.76074,0-1.63965-.82031-3.7207-2.90039-3.7207C311.025,222.64956,310.12556,224.57046,310.12556,226.4103Z"/><path class="feb10245-6b5e-482e-b7f7-69f4d909c535" d="M326.40681,221.55v1.39941H323.3863v8.28223h-1.74121v-8.28223h-3.02051V221.55Z"/><path class="feb10245-6b5e-482e-b7f7-69f4d909c535" d="M329.50544,221.55v3.18066c0,1.21973.46,2.05957,2.001,2.05957a3.63773,3.63773,0,0,0,2.08008-.67968V221.55h1.74023v9.68164H333.5865v-3.88086h-.04a5.08385,5.08385,0,0,1-2.62012.74024,2.86995,2.86995,0,0,1-3.18164-3.16114V221.55Z"/><path class="feb10245-6b5e-482e-b7f7-69f4d909c535" d="M339.82575,221.55V225.63c0,1.541-.0205,2.501-.10058,3.88086l.06055.02051c.58007-1.18067.91992-1.86036,1.55957-2.98047l3.02148-5.001h2.05957v9.68164h-1.67969V227.131c0-1.58105.04-2.40039.12012-3.96093h-.06055c-.62011,1.24023-1.04,2.02051-1.60058,3-.91992,1.501-1.98047,3.36133-3.02051,5.06152h-2.02051V221.55Z"/><path class="feb10245-6b5e-482e-b7f7-69f4d909c535" d="M351.026,221.55v4.2002h.41992l3.64063-4.2002h2.14062l-4.22168,4.38086c1.56055.16016,2.501,1.20019,3.26074,2.94043a20.55576,20.55576,0,0,0,1.041,2.36035h-1.84082a12.88124,12.88124,0,0,1-.90039-1.98047,3.14227,3.14227,0,0,0-3.2002-2.28027H351.026v4.26074h-1.74121V221.55Z"/><path class="feb10245-6b5e-482e-b7f7-69f4d909c535" d="M364.42536,231.23159l-.13964-1.2207h-.06055a3.60388,3.60388,0,0,1-2.96,1.44043,2.75813,2.75813,0,0,1-2.96094-2.78028c0-2.34082,2.08008-3.62109,5.82129-3.60058v-.2002a1.99565,1.99565,0,0,0-2.2002-2.24023,4.81878,4.81878,0,0,0-2.5205.71972l-.40039-1.16015a6.00316,6.00316,0,0,1,3.18066-.86035c2.96094,0,3.68066,2.0205,3.68066,3.96093v3.6211a13.62233,13.62233,0,0,0,.16016,2.32031Zm-.25976-4.94141c-1.9209-.04-4.10059.30079-4.10059,2.18067a1.55761,1.55761,0,0,0,1.66016,1.68066,2.40864,2.40864,0,0,0,2.33984-1.62011,1.83,1.83,0,0,0,.10059-.56055Z"/><path class="feb10245-6b5e-482e-b7f7-69f4d909c535" d="M368.80427,221.55h2.16016l1.76074,4.88086c.24023.71973.66015,1.90039.87988,2.66016h.04c.21973-.71973.75977-2.26075,1.14063-3.32032l1.55957-4.2207H378.526l.68066,9.68164H377.526l-.21973-4.62109c-.06054-1.04-.14062-2.28028-.18066-3.46094H377.066c-.25977.88086-.52051,1.66113-1.06055,3.14062l-1.86035,4.88184h-1.28027l-1.72071-4.78125c-.2998-.9209-.71972-2.32031-.96-3.2207h-.08008c-.04,1.13965-.0996,2.41992-.16015,3.48047l-.23926,4.58105h-1.62109Z"/></g></g></svg>