<?xml version="1.0" encoding="UTF-8" standalone="no"?>
<!DOCTYPE svg PUBLIC "-//W3C//DTD SVG 1.1//EN"
 "http://www.w3.org/Graphics/SVG/1.1/DTD/svg11.dtd">
<!-- Generated by graphviz version 5.0.0 (20220707.1540)
 -->
<!-- Title: dependencies Pages: 1 -->
<svg width="300pt" height="174pt"
 viewBox="0.00 0.00 300.00 173.80" xmlns="http://www.w3.org/2000/svg" xmlns:xlink="http://www.w3.org/1999/xlink">
<g id="graph0" class="graph" transform="scale(1 1) rotate(0) translate(4 169.8)">
<title>dependencies</title>
<polygon fill="white" stroke="transparent" points="-4,4 -4,-169.8 296,-169.8 296,4 -4,4"/>
<text text-anchor="middle" x="146" y="-8.2" font-family="sans-serif" font-size="14.00">dependencies</text>
<g id="clust1" class="cluster">
<title>cluster_DocumentationStaticModule</title>
<polygon fill="none" stroke="black" stroke-dasharray="1,5" points="8,-32.8 8,-157.8 284,-157.8 284,-32.8 8,-32.8"/>
</g>
<g id="clust6" class="cluster">
<title>cluster_DocumentationStaticModule_providers</title>
<polygon fill="none" stroke="black" points="16,-40.8 16,-92.8 276,-92.8 276,-40.8 16,-40.8"/>
</g>
<!-- DocumentationStaticService -->
<g id="node1" class="node">
<title>DocumentationStaticService</title>
<ellipse fill="#fdb462" stroke="black" cx="146" cy="-66.8" rx="121.54" ry="18"/>
<text text-anchor="middle" x="146" y="-62.6" font-family="Times,serif" font-size="14.00">DocumentationStaticService</text>
</g>
<!-- DocumentationStaticModule -->
<g id="node2" class="node">
<title>DocumentationStaticModule</title>
<polygon fill="#8dd3c7" stroke="black" points="234.75,-149.8 231.75,-153.8 210.75,-153.8 207.75,-149.8 57.25,-149.8 57.25,-113.8 234.75,-113.8 234.75,-149.8"/>
<text text-anchor="middle" x="146" y="-127.6" font-family="Times,serif" font-size="14.00">DocumentationStaticModule</text>
</g>
<!-- DocumentationStaticService&#45;&gt;DocumentationStaticModule -->
<g id="edge1" class="edge">
<title>DocumentationStaticService&#45;&gt;DocumentationStaticModule</title>
<path fill="none" stroke="black" d="M146,-84.91C146,-84.91 146,-103.79 146,-103.79"/>
<polygon fill="black" stroke="black" points="142.5,-103.79 146,-113.79 149.5,-103.79 142.5,-103.79"/>
</g>
</g>
</svg>
