<?xml version="1.0" encoding="UTF-8" standalone="no"?>
<!DOCTYPE svg PUBLIC "-//W3C//DTD SVG 1.1//EN"
 "http://www.w3.org/Graphics/SVG/1.1/DTD/svg11.dtd">
<!-- Generated by graphviz version 5.0.0 (20220707.1540)
 -->
<!-- Title: dependencies Pages: 1 -->
<svg width="756pt" height="174pt"
 viewBox="0.00 0.00 756.00 173.80" xmlns="http://www.w3.org/2000/svg" xmlns:xlink="http://www.w3.org/1999/xlink">
<g id="graph0" class="graph" transform="scale(1 1) rotate(0) translate(4 169.8)">
<title>dependencies</title>
<polygon fill="white" stroke="transparent" points="-4,4 -4,-169.8 752,-169.8 752,4 -4,4"/>
<text text-anchor="middle" x="374" y="-8.2" font-family="sans-serif" font-size="14.00">dependencies</text>
<g id="clust1" class="cluster">
<title>cluster_DocumentationStaticModule</title>
<polygon fill="none" stroke="black" stroke-dasharray="1,5" points="8,-32.8 8,-157.8 284,-157.8 284,-32.8 8,-32.8"/>
</g>
<g id="clust6" class="cluster">
<title>cluster_DocumentationStaticModule_providers</title>
<polygon fill="none" stroke="black" points="16,-40.8 16,-92.8 276,-92.8 276,-40.8 16,-40.8"/>
</g>
<g id="clust7" class="cluster">
<title>cluster_MkgtOfficialBotModule</title>
<polygon fill="none" stroke="black" stroke-dasharray="1,5" points="292,-32.8 292,-157.8 534,-157.8 534,-32.8 292,-32.8"/>
</g>
<g id="clust12" class="cluster">
<title>cluster_MkgtOfficialBotModule_providers</title>
<polygon fill="none" stroke="black" points="300,-40.8 300,-92.8 526,-92.8 526,-40.8 300,-40.8"/>
</g>
<g id="clust13" class="cluster">
<title>cluster_MkgtruApiModule</title>
<polygon fill="none" stroke="black" stroke-dasharray="1,5" points="542,-32.8 542,-157.8 740,-157.8 740,-32.8 542,-32.8"/>
</g>
<g id="clust18" class="cluster">
<title>cluster_MkgtruApiModule_providers</title>
<polygon fill="none" stroke="black" points="550,-40.8 550,-92.8 732,-92.8 732,-40.8 550,-40.8"/>
</g>
<!-- DocumentationStaticService -->
<g id="node1" class="node">
<title>DocumentationStaticService</title>
<ellipse fill="#fdb462" stroke="black" cx="146" cy="-66.8" rx="121.54" ry="18"/>
<text text-anchor="middle" x="146" y="-62.6" font-family="Times,serif" font-size="14.00">DocumentationStaticService</text>
</g>
<!-- DocumentationStaticModule -->
<g id="node2" class="node">
<title>DocumentationStaticModule</title>
<polygon fill="#8dd3c7" stroke="black" points="234.75,-149.8 231.75,-153.8 210.75,-153.8 207.75,-149.8 57.25,-149.8 57.25,-113.8 234.75,-113.8 234.75,-149.8"/>
<text text-anchor="middle" x="146" y="-127.6" font-family="Times,serif" font-size="14.00">DocumentationStaticModule</text>
</g>
<!-- DocumentationStaticService&#45;&gt;DocumentationStaticModule -->
<g id="edge1" class="edge">
<title>DocumentationStaticService&#45;&gt;DocumentationStaticModule</title>
<path fill="none" stroke="black" d="M146,-84.91C146,-84.91 146,-103.79 146,-103.79"/>
<polygon fill="black" stroke="black" points="142.5,-103.79 146,-113.79 149.5,-103.79 142.5,-103.79"/>
</g>
<!-- MkgtOfficialBotService -->
<g id="node3" class="node">
<title>MkgtOfficialBotService</title>
<ellipse fill="#fdb462" stroke="black" cx="413" cy="-66.8" rx="104.8" ry="18"/>
<text text-anchor="middle" x="413" y="-62.6" font-family="Times,serif" font-size="14.00">MkgtOfficialBotService</text>
</g>
<!-- MkgtOfficialBotModule -->
<g id="node4" class="node">
<title>MkgtOfficialBotModule</title>
<polygon fill="#8dd3c7" stroke="black" points="489.65,-149.8 486.65,-153.8 465.65,-153.8 462.65,-149.8 336.35,-149.8 336.35,-113.8 489.65,-113.8 489.65,-149.8"/>
<text text-anchor="middle" x="413" y="-127.6" font-family="Times,serif" font-size="14.00">MkgtOfficialBotModule</text>
</g>
<!-- MkgtOfficialBotService&#45;&gt;MkgtOfficialBotModule -->
<g id="edge2" class="edge">
<title>MkgtOfficialBotService&#45;&gt;MkgtOfficialBotModule</title>
<path fill="none" stroke="black" d="M413,-84.91C413,-84.91 413,-103.79 413,-103.79"/>
<polygon fill="black" stroke="black" points="409.5,-103.79 413,-113.79 416.5,-103.79 409.5,-103.79"/>
</g>
<!-- MkgtruApiService -->
<g id="node5" class="node">
<title>MkgtruApiService</title>
<ellipse fill="#fdb462" stroke="black" cx="641" cy="-66.8" rx="83.4" ry="18"/>
<text text-anchor="middle" x="641" y="-62.6" font-family="Times,serif" font-size="14.00">MkgtruApiService</text>
</g>
<!-- MkgtruApiModule -->
<g id="node6" class="node">
<title>MkgtruApiModule</title>
<polygon fill="#8dd3c7" stroke="black" points="702.05,-149.8 699.05,-153.8 678.05,-153.8 675.05,-149.8 579.95,-149.8 579.95,-113.8 702.05,-113.8 702.05,-149.8"/>
<text text-anchor="middle" x="641" y="-127.6" font-family="Times,serif" font-size="14.00">MkgtruApiModule</text>
</g>
<!-- MkgtruApiService&#45;&gt;MkgtruApiModule -->
<g id="edge3" class="edge">
<title>MkgtruApiService&#45;&gt;MkgtruApiModule</title>
<path fill="none" stroke="black" d="M641,-84.91C641,-84.91 641,-103.79 641,-103.79"/>
<polygon fill="black" stroke="black" points="637.5,-103.79 641,-113.79 644.5,-103.79 637.5,-103.79"/>
</g>
</g>
</svg>
